<mxfile host="app.diagrams.net" modified="2021-08-10T05:21:01.464Z" agent="5.0 (Macintosh; Intel Mac OS X 10_15_7) AppleWebKit/537.36 (KHTML, like Gecko) Chrome/92.0.4515.131 Safari/537.36" etag="-flAzi9VXAa5Zp6Gjoag" version="14.9.4" type="github">
  <diagram id="-S-SlBokZirKx-TmyMDk" name="Page-1">
    <mxGraphModel dx="2789" dy="676" grid="1" gridSize="10" guides="1" tooltips="1" connect="1" arrows="1" fold="1" page="1" pageScale="1" pageWidth="1654" pageHeight="2336" math="0" shadow="0">
      <root>
        <mxCell id="0" />
        <mxCell id="1" parent="0" />
        <mxCell id="YqGiHm_dUTuIlLCKrZof-1" value="" style="rounded=1;whiteSpace=wrap;html=1;fillColor=#f5f5f5;strokeColor=#666666;fontColor=#333333;strokeWidth=1;shadow=0;glass=0;perimeterSpacing=1;" vertex="1" parent="1">
          <mxGeometry x="240" y="110" width="580" height="570" as="geometry" />
        </mxCell>
        <mxCell id="YqGiHm_dUTuIlLCKrZof-10" value="PV / UV模块" style="rounded=1;whiteSpace=wrap;html=1;fillColor=#dae8fc;strokeColor=#6c8ebf;" vertex="1" parent="1">
          <mxGeometry x="860" y="290" width="90" height="50" as="geometry" />
        </mxCell>
        <mxCell id="YqGiHm_dUTuIlLCKrZof-26" style="edgeStyle=orthogonalEdgeStyle;rounded=0;orthogonalLoop=1;jettySize=auto;html=1;exitX=0.5;exitY=0;exitDx=0;exitDy=0;entryX=0.5;entryY=1;entryDx=0;entryDy=0;" edge="1" parent="1" source="YqGiHm_dUTuIlLCKrZof-12" target="YqGiHm_dUTuIlLCKrZof-24">
          <mxGeometry relative="1" as="geometry" />
        </mxCell>
        <mxCell id="YqGiHm_dUTuIlLCKrZof-12" value="&lt;font style=&quot;font-size: 16px&quot;&gt;Apache Server&lt;/font&gt;" style="rounded=1;whiteSpace=wrap;html=1;fillColor=#ffe6cc;strokeColor=#d79b00;" vertex="1" parent="1">
          <mxGeometry x="275" y="610" width="510" height="50" as="geometry" />
        </mxCell>
        <mxCell id="YqGiHm_dUTuIlLCKrZof-14" value="信用付" style="rounded=1;whiteSpace=wrap;html=1;fillColor=#ffe6cc;strokeColor=#d79b00;" vertex="1" parent="1">
          <mxGeometry x="-110" y="240" width="90" height="50" as="geometry" />
        </mxCell>
        <mxCell id="YqGiHm_dUTuIlLCKrZof-16" value="微粒贷" style="rounded=1;whiteSpace=wrap;html=1;fillColor=#ffe6cc;strokeColor=#d79b00;" vertex="1" parent="1">
          <mxGeometry y="240" width="90" height="50" as="geometry" />
        </mxCell>
        <mxCell id="YqGiHm_dUTuIlLCKrZof-18" value="mon.cf.com" style="rounded=1;whiteSpace=wrap;html=1;fillColor=#d5e8d4;strokeColor=#82b366;" vertex="1" parent="1">
          <mxGeometry x="120" y="240" width="90" height="50" as="geometry" />
        </mxCell>
        <mxCell id="YqGiHm_dUTuIlLCKrZof-24" value="&lt;span style=&quot;font-size: 16px&quot;&gt;守夜人PHP&lt;/span&gt;" style="rounded=1;whiteSpace=wrap;html=1;fillColor=#dae8fc;strokeColor=#6c8ebf;" vertex="1" parent="1">
          <mxGeometry x="275" y="530" width="510" height="50" as="geometry" />
        </mxCell>
        <mxCell id="YqGiHm_dUTuIlLCKrZof-27" value="" style="endArrow=none;html=1;entryX=0.999;entryY=0.648;entryDx=0;entryDy=0;entryPerimeter=0;" edge="1" parent="1">
          <mxGeometry width="50" height="50" relative="1" as="geometry">
            <mxPoint x="240" y="510" as="sourcePoint" />
            <mxPoint x="820.4180000000006" y="509.65599999999995" as="targetPoint" />
          </mxGeometry>
        </mxCell>
        <mxCell id="YqGiHm_dUTuIlLCKrZof-31" value="" style="edgeStyle=orthogonalEdgeStyle;rounded=0;orthogonalLoop=1;jettySize=auto;html=1;" edge="1" parent="1" source="YqGiHm_dUTuIlLCKrZof-28" target="YqGiHm_dUTuIlLCKrZof-29">
          <mxGeometry relative="1" as="geometry" />
        </mxCell>
        <mxCell id="YqGiHm_dUTuIlLCKrZof-28" value="&lt;font style=&quot;font-size: 16px&quot;&gt;Middle进程&lt;/font&gt;" style="rounded=1;whiteSpace=wrap;html=1;fillColor=#ffe6cc;strokeColor=#d79b00;" vertex="1" parent="1">
          <mxGeometry x="275" y="430" width="510" height="50" as="geometry" />
        </mxCell>
        <mxCell id="YqGiHm_dUTuIlLCKrZof-29" value="&lt;span style=&quot;font-size: 16px&quot;&gt;data_report_server、com_ck_proxy_server 服务&lt;/span&gt;" style="rounded=1;whiteSpace=wrap;html=1;fillColor=#dae8fc;strokeColor=#6c8ebf;" vertex="1" parent="1">
          <mxGeometry x="275" y="350" width="510" height="50" as="geometry" />
        </mxCell>
        <mxCell id="YqGiHm_dUTuIlLCKrZof-32" value="" style="endArrow=none;html=1;entryX=0.999;entryY=0.648;entryDx=0;entryDy=0;entryPerimeter=0;" edge="1" parent="1">
          <mxGeometry width="50" height="50" relative="1" as="geometry">
            <mxPoint x="240" y="320" as="sourcePoint" />
            <mxPoint x="820.4180000000006" y="319.65599999999995" as="targetPoint" />
          </mxGeometry>
        </mxCell>
        <mxCell id="YqGiHm_dUTuIlLCKrZof-35" value="" style="edgeStyle=orthogonalEdgeStyle;rounded=0;orthogonalLoop=1;jettySize=auto;html=1;" edge="1" parent="1" source="YqGiHm_dUTuIlLCKrZof-33" target="YqGiHm_dUTuIlLCKrZof-34">
          <mxGeometry relative="1" as="geometry" />
        </mxCell>
        <mxCell id="YqGiHm_dUTuIlLCKrZof-33" value="&lt;font style=&quot;font-size: 16px&quot;&gt;cron.d进程&lt;/font&gt;" style="rounded=1;whiteSpace=wrap;html=1;fillColor=#ffe6cc;strokeColor=#d79b00;" vertex="1" parent="1">
          <mxGeometry x="275" y="240" width="510" height="50" as="geometry" />
        </mxCell>
        <mxCell id="YqGiHm_dUTuIlLCKrZof-34" value="&lt;span style=&quot;font-size: 16px&quot;&gt;定时任务&lt;/span&gt;" style="rounded=1;whiteSpace=wrap;html=1;fillColor=#dae8fc;strokeColor=#6c8ebf;" vertex="1" parent="1">
          <mxGeometry x="275" y="160" width="510" height="50" as="geometry" />
        </mxCell>
        <mxCell id="YqGiHm_dUTuIlLCKrZof-36" value="" style="shape=image;verticalLabelPosition=bottom;labelBackgroundColor=#ffffff;verticalAlign=top;aspect=fixed;imageAspect=0;image=data:image/png,iVBORw0KGgoAAAANSUhEUgAAAPMAAADPCAMAAAAXkBfbAAAA6lBMVEX///8JnOwGbaUJlOAAaaMAa6QAZqEGb6gIkNoGaqEJmOYefK7y8vIZfbQTm+YJn/EVdKltmr4hisMVld0AYp+SutPd7PMIh8zm8fdhk7o6gLChvNMseqzQ4OsHfr8GdLAthbR6osMfltgejcsHebcIitHx9/oAl+umv9VqpccHg8a0z+CoyNzF2ebU5u+Fsc6bwdhNXGR0qspMjrkAXZ3O6vqb1fZNkrt3g4lHq+xwvvI+jbpdkLm41uVJs/CdpquvtLeIzfXIztA9T1iLlJnc4OFTYWl7v+3C4/mr2fUlpe2TweSRss1bnMFMladuAAARZ0lEQVR4nO2di3baSLaGoVRVApEOokeATLj5DCgNSEiBpOmEMNPTPX36dCa8/+ucuupasgFjCY/1r5UsWy4Kfdp12XurVKrVKlWqVKlSpUqVKlWqVKlSpUqVKpUpe6rSouzTelb1MMoKfy37tJ5VPYRARvCu7NN6VvUI8v8k9ffmK2Bu1+NqN14Js0FgDYP/eyXMDaDVjcmyXV/q7dfCPG826oY+btfHzVfD3KiYK+b/OlXMr4n5VY7bEzI/z/r1en/2apiZH8b0GvwwmzG324Rb/HvR/vaqe4J8wvz3pH5EL5bZ6WD4uBTR8wuOn50OBKiZEAVUHGqmD71o5h9+TEoHKHXkR8KcOvLDS27bsNloJ1SfgGY9ecggzMkjp4xho/2oEIZzxZjJSMxyH/yfQZgN8Zs8BNhcJX5j/53AvMBm1ymE4jxxZmO8JJ7GpF7XJg3BbMzm9fqSOF3ziSGYz/RJVhZAcNorhuMcCWadUCyZRzkXzFqz3zZmerveb0rm83xPu0VHPmi6BZGcLsE8GUvm0M6MeRJnPi/G8CEA4yZA4Oagn43ZI1aetxtkDoBBUTAn6tmYFxjMjDqDBquiaE7TczHbFjEzHeIbEwK9LoznFD0XcxeDCU/+azqAe7swoBMkmWcnMJ8zbn+FzWVb3PEgo7dfGNAJituZpe1DZkAmYsYMQjufntNfD1FTk9F2HwDrllq38MM0coJGg/4zpB9GfooOM2Yjfuhh5hUAenhvi1QId8UhPa576m8nbr8J5sQhcOY9up8wGEeFG02ge8UhJWWP0vLuULP/t6QIc+rI3whz6ki/CbfrTHVirHLIlZzHLtAM4PuymLvATIvQZA+hE0qh7CETvBPMOwhizGT0Q9Oyhm4yg6RXSNCMR/aQotTjhRDA3wXzFuqNZHeBZcWVhNn8ISkdgB8ePwRUh/TUETNi3qMEc30McFkeaBej5dukZqA5Tx5h/Tl1iDCnPjdvglnq0LIpmUlMNdFiyO0lQLtg07mj6myCQ4FhdRdLTyGM/8egKS2SzRnIw7GcgTxExuJZPI1A5+GQmfTnpJ3npCdgmW3E2PrY8kcFcXPmBhletD6ZiPsNyTynMy5xQoy+Jn0S8pMoKZnpZ8KSnFl+pj6fP8hMQo0ojcjGAowWxfgpnJlmAubETTIA+YUxX+RvA+avkovSnLeNCSsZMh8TcxVl1vXZeDmnWo5nus7SCYV08aKYaz75ojiz1p9rhiZlaI3ljNr6WEDmqDBmF4JZnDniDUW8cGQV4J1x5vHzM3vEZYn7r1lkzZgB2ClgHCvMzrUtcWnbD5lZIyEmKiKBUhyzL3MGeWbWZgBNi5iuimN2IKABeL6ZlySoLiTWEsxAMDdDZprfHp+Z336QubaBQNfyzUwmbHwsAjnlkzD/4kGfZP6YT6KpfZIaHcXCtIHKzDpAgyJ9koRivqdsiafkDKTvGVfEbB98nXhbwtAKK0/I5FxQBjiHWZEnSRxqK/MkaeY2YSbxs+11OwOddOemCDMyZjbmxA2zus+LujZbXCZA8kcpMpGmD5EzSh1pAdUhPV0VzSJ8tCwMEUBgMm+rkecz+udnRq4F1oMJgtMOnfg5Hkvo44bsHkkTa/Mx+RiEz34Ta4OJUQrTZLaMxc7MzA32X2O+nLHgAm2fP2mygGBMAppGEdIMtqQqFHM/9AmRTsJISoy3Rdyp/EoiO0NLjcXFiJqZDFmi9UNsWXuvkGwgZdY07fEzvL6El2m2hsPhYNvxC8sKlcdMzUyCCT1Yj0brXpGLS0pjpsjGGKFt8UtpBHPxHZrNT6CUPG9ZzMzMJIBCJayYWsDmsgRmQ7jWuIy7zxuMxiUwizgZmWWsEfPpepbCBzEZNJazyMAtg5m1bGPcRINSlgJ6FtCNghs3D6eIC4afO4JSy/kI9EbBzLxlExesVQpyrUaiGTpZFdi4uZn7BeVzVdojsCyUmSMbZAC7K2s1cxeDcZHMIjcyJqFjaYukPAwmZ3To92//8fb9U5hFEgiU445wrU0ETvc+P39yHOfTP56KTDwwuC9vnT5d+dY/tXF/IeXpqX55GrI2awKztFVhRF0IZtpphv72qTb65Zd/vqnZ3y5DFp2ZrngsdZmnp4OmdpKh33+pvfnw4fdfyYf+dVGfFshzupy3TORabYBYaPW4od//XPvt9w8f/v3HH7WfL2GW6ewJKMnpjLSBYHKSoQXzh//99SJmiTxDoPTl+TYE+kmuGGnbDmX+/Y9L2rZEHgNUkp8d1w5yt+TRxv2tV/vtl99/+e2SMUwgG8QZwTew0xZ9DqZxkqH/5HOq8+elyPR+Or67gccR7C3iQfTjo9iXT7Ztf/pydsvWwoYNYGnLeBMKsDD049BvP3/+fL7zKRv2ki53u5GnQ1uI+yW5rftJ4bWRsPKtPH7hYhFFK9na2niiOn4mMh2+oHkryHQRppijFdDamHhq/ezxM5GZlQc30rCpRiZojrPQ7bo2J/EAQNb284XIkrgxIyP29masTEXvvc+NeJdut9vacjaht4Ut03V+fpKRjcakSZBv7InnKQTNybg/n8+5WfrLCaDLqRE2d+xG+PkTVGy9SF8nl25za0+2e0MkV47ruh4uH7em30UXPN/3CpEbtCuDm3pIkCuASK6Wh3QpC/nV3PuxG8P/9/ZSI0/ogF12WKGUT7o0+LodUG3v7v0g/VjEXxcRN8ZkEIS7G+vKQs6RQG9G7Ak49X3//5zapY0Q2SBGRhDf5CYVVM4CA3jXe8OlKnFaCBlb6jZn4/5tTVEpEUvD7ehp0DFiOnYhiIJbNTITbd5wsHqTT/1I8zYSxHSCwrsbcr3U8hFCHzeyfSuw//qWTx1fv0kXMhIjb29yuE4p0CHCW/fNmzzsT2rouIXJ9DTTEfHfWqubbtah1lNIZufjKEb9JnHmdjqjn8SljZqNXHDgvgxiIsc3CTU6em9SCkv89fk9JWXSUmosZ03aqPHdyyGmGu0tCLB5t3LS2EK9P9+nWelcbBAL69xl3XkvipjqsAXE1tg8eus86m8p+877M9BkwOa2/FzuJXJWRwvT1bbT+3eHXk1B/ek/395z62rz/pgEnRwY77+/PBNLOaOFidguh+ZwuwgOdtbWP3+eL0mIzR5lJV2YlNx3C12t+gxy3PsBxHJ1td7a73YLn2qz2+2mrRYWIScdsmDrzl/dRBb3yep53T226HPoDJ0+iY75U+liqTm9Grh1dL2XbuCURoFPYswh3ZYDc0G6Q8eQxpyL7uE2w8QryLE9b7Va/cTlkh+9Ue+/oy1XqlSpUqVKlSpVqlTpKlpf+Wlj27v1AMs+Ds3h4YoVBgNzeAML/B7SHqOrrtXyPiKArM3V6nsGORbN6eB3V6vwnqYR0OCWkyW9azN3OPMtZxEq5iuoYr5JVcxXUMV8k6qYr6CK+Sb1OpjFSwJEvJfH3EuUypHDSnnrOGAus7NW1CZqGCmKk3pjH818z+nqBZ1ti+3lP+106SkomXvdzpTv+L/vdHO/aN2927NCrW0nWieTx+x1huYgtRPa2r+bhjUkP+EcTb3Fl2Yc7r+2RKn787dS6y3Y/WL+GkTy026tYh7tQPjqRHqn+agMNL0tvfnMC5FS+sJ+iNn2EakSwviCz9EexWpAYBP/DF1nC/Gq5qym4Ysc6fdMz4t6ne8mTrwFknyR7+EUs+0DCBKlMMiuxrU36TdKYpMv51Qye1PML3S0Xr2XraEV7S3lDNkbzDbrbfKUAWyd08DtY+rjrIoBSDL39jBTCMBj6otG6VNhVjjmMDsbU1QaMa8H2bdwouipBZsxg+EwczbWGYso16YCRmw8GTHnlIKtxPCzQqpSCO8cFbNnYlkEyySUq6wBYPk+PsEMslY6g7k3FV9C18HQRREoXp1kJldfXSrxckBPR6lS8lcvy2wvwhOHoZnzagBYbBcnmcPLSUX3OYXw5ASjvQthhruu6/rHYbzbCmanJUuB4dF33e5uGEJvQ4r1QB4Dg2N3FZC6xDlTG6SYV2HrRDDcsnM9DGsYLrpu4O9kDQAfnQwzNLcbUmqzNdE5LxXwRfPCAzknOO4ubHKSeSFLbeXcY7tbcc44TOttsbwMcrVur8suFgJpO687Yb+Hpi87qyMNAHdhDYG43OJ1fDFmpPvhtXKD01f6r8VX40WsnzkbK8ns6fw3K/4AlL2wxNIv8c2uJZpbfDTv7S0IrW2qP7steVmRFZtkXCyaXLyGtRhiEXASzFi/8IEGcWFR6tGmVYLZ4V0+87bHrpjQ7+KtDpmpnLh795W1hIiZXIfwxIfxlZ/ioqXfV+VDYZc4M9xdmEGlm3sD1SvfulaM2eO/ZHeA3vCT4Ulwl5+MnucRhczdcApA+C5uq0CYOVMD71pouI6N2xc/GP6dV5bdQlP2LMa8YD+rdgzZsxNgGwPRJ2dpqdw7FYL5sItcOTP58MkdVBuAPWdP/xJEzNald1gcfs6qz4sWwJj516jekHbg14y+w6BnsmcJYe7l78ixSBoZpByaEfseZeTFOzp9JYZgzr+0j8nmX24q/uR8RZKZ46s382rxUg7bfoqWyt/bv5NyNsz0oxgrNl8T166X0RrIyyGZL35yZWSFTTOjbuhvu/xclMvMeSn64gbeGR/Y6D7FnO0qP8lRO/ed8GZPMD9hmxr3gfOMYowAqUeWWClXdno9/1zSdoaLlJ2lq5B5bRuS/o81EsywcylybYVFTQpFsWSXuxXK2ZDP3HTbGM78wBakEbMYedODlR+5QjmKmC9/E+FpzGxwz2M2z2ZGImQD4GOyuxTD7D7AvA6ZA25n5eTgsWZHmY8nMkMc9DaCLvnI86PMKOzPT2DmzoZ6QyM+JtFezJ0NpPTh+bhDJ7vuA9cvzkwfgXV2onkn9oJ7J8YwnCP2qvMnM9tsQIRT1d9EWyU0Bz3/a7jr8rHH3joP4gGHmhkNWUNwtnKyjvWYFfdw9+/yRK/n05n59GopvAAe1XF3j/VZ9mOmAj6LmNQn4S/CUM31cWbhcdgiTo6H33xsQNuHT/mpzLX7XEeCdzn4lf7Mjana4CrmbwrT5W+Lnoyfe8KHxJHf7EQeZr6ezsxdn0zARK45NyAn4EEighnnk39cOEXfo0BAqVTOwDMFdOTf8UEMPvjOoqcz2wMR/6WGnpE4Ich+c3gXyOCI00b87eMix5F5gZhzOLC/p3NDK+FdRfk9vmyHtPd0DV704N3TmcM4P7mZpszbyBE9ENPMIDG3iLbAvDAqMQPh5MZQgW5Z8KBgJj4tVzTuiXQMTL7exSU1tOT5XYG5JjKAyIw8QceXVpYnaMthVvejUhs5DMlhS45LaBg5WOsFvTDMPc7mPX2RAAl7cK8lqoxlEniqMNzU9RrM8msAhMcVDWG8nYz2YvmKtfR4MTh6tNTqCGXqKnJDDsJwCOsbXmrPwwNl3rMm58PY3L8KazA3I1bDTgQYH+XlvwJzOJaQy20h09St0C2OD6BumHljpZAVJmHje2QHYWIPW7ppQlmKDX+qnP5Cth9ZSddS1xDOp1dhrrkw5fyLn5OOVze6u4BiBRFODPlJ9zG6TjQfrLp3E3YaUx72lSn9aFy7DnPtkL0PQmpN57VcXVVqmCoVKG4wAMw2QlPer5KJ88j/DVBuDVdkrq2nVup7EJ5mQorDIH0rKpGnFfJAqhRCeMcGcvV9ydEgnQRzzWwN+3DMuBZzzQkGMGZFCIfKsMMfxm4mIQgHKo/J9oc4XgrJe8sBnRbxLl2ejyf4EK/BjN+ZjGpgYr3hKi/BsYOOaWH+Hm1zF+REhD13Z7JHnSEpdQxy0n3r7g6JurDZibJeU/p7Nu466OQ7F/k1LJLbW3gmKX6ldx05tucuFotN8OCz2U5vFGxIMXdkP1jK67K6EttP2e7CV13Mkb/J7Mwia3CzG1j1/IV7aW67UqVKlSpVqlSpUqVKlSpVqlTpter/AdgLFcBNMGjXAAAAAElFTkSuQmCC;" vertex="1" parent="1">
          <mxGeometry x="452.5" y="27.97" width="155" height="132.03" as="geometry" />
        </mxCell>
        <mxCell id="YqGiHm_dUTuIlLCKrZof-37" value="" style="shape=image;verticalLabelPosition=bottom;labelBackgroundColor=#ffffff;verticalAlign=top;aspect=fixed;imageAspect=0;image=https://www.sweharris.org/images/container-layer.png;" vertex="1" parent="1">
          <mxGeometry x="-450" y="330" width="520" height="181" as="geometry" />
        </mxCell>
        <mxCell id="YqGiHm_dUTuIlLCKrZof-39" value="&lt;font color=&quot;#ffffff&quot;&gt;Docker Engine&lt;/font&gt;" style="rounded=0;whiteSpace=wrap;html=1;shadow=0;glass=0;strokeWidth=1;fillColor=#858585;strokeColor=none;" vertex="1" parent="1">
          <mxGeometry x="-290" y="910" width="400" height="30" as="geometry" />
        </mxCell>
        <mxCell id="YqGiHm_dUTuIlLCKrZof-40" value="&lt;font color=&quot;#ffffff&quot;&gt;Operating System&lt;/font&gt;" style="rounded=0;whiteSpace=wrap;html=1;shadow=0;glass=0;strokeWidth=1;fillColor=#00366E;strokeColor=none;" vertex="1" parent="1">
          <mxGeometry x="-290" y="950" width="400" height="30" as="geometry" />
        </mxCell>
        <mxCell id="YqGiHm_dUTuIlLCKrZof-41" value="&lt;font color=&quot;#ffffff&quot;&gt;cdg_cft:entpay_aio:base(企业支付基础镜像)&lt;/font&gt;" style="rounded=0;whiteSpace=wrap;html=1;shadow=0;glass=0;strokeWidth=1;fillColor=#61A9F2;strokeColor=none;" vertex="1" parent="1">
          <mxGeometry x="-290" y="870" width="400" height="30" as="geometry" />
        </mxCell>
        <mxCell id="YqGiHm_dUTuIlLCKrZof-42" value="" style="rounded=0;whiteSpace=wrap;html=1;shadow=0;glass=0;strokeWidth=4;strokeColor=#B9E0A5;fillColor=none;" vertex="1" parent="1">
          <mxGeometry x="-290" y="750" width="120" height="110" as="geometry" />
        </mxCell>
        <mxCell id="YqGiHm_dUTuIlLCKrZof-43" value="" style="rounded=0;whiteSpace=wrap;html=1;shadow=0;glass=0;strokeWidth=4;strokeColor=#FFD966;fillColor=none;" vertex="1" parent="1">
          <mxGeometry x="-150" y="750" width="120" height="110" as="geometry" />
        </mxCell>
        <mxCell id="YqGiHm_dUTuIlLCKrZof-44" value="" style="rounded=0;whiteSpace=wrap;html=1;shadow=0;glass=0;strokeWidth=5;strokeColor=#EA6B66;fillColor=none;" vertex="1" parent="1">
          <mxGeometry x="-10" y="750" width="120" height="110" as="geometry" />
        </mxCell>
        <mxCell id="YqGiHm_dUTuIlLCKrZof-45" value="&lt;font color=&quot;#ffffff&quot;&gt;守夜人PHP&lt;/font&gt;" style="rounded=0;whiteSpace=wrap;html=1;shadow=0;glass=0;strokeWidth=4;strokeColor=none;fillColor=#B9E0A5;" vertex="1" parent="1">
          <mxGeometry x="-280" y="760" width="100" height="40" as="geometry" />
        </mxCell>
        <mxCell id="YqGiHm_dUTuIlLCKrZof-46" value="&lt;font color=&quot;#ffffff&quot;&gt;Apache Server&lt;/font&gt;" style="rounded=0;whiteSpace=wrap;html=1;shadow=0;glass=0;strokeWidth=4;strokeColor=none;fillColor=#B9E0A5;" vertex="1" parent="1">
          <mxGeometry x="-280" y="810" width="100" height="40" as="geometry" />
        </mxCell>
        <mxCell id="YqGiHm_dUTuIlLCKrZof-47" value="&lt;font color=&quot;#ffffff&quot;&gt;数据上报服务&lt;/font&gt;" style="rounded=0;whiteSpace=wrap;html=1;shadow=0;glass=0;strokeWidth=4;strokeColor=none;fillColor=#FFD966;" vertex="1" parent="1">
          <mxGeometry x="-140" y="760" width="100" height="40" as="geometry" />
        </mxCell>
        <mxCell id="YqGiHm_dUTuIlLCKrZof-48" value="&lt;font color=&quot;#ffffff&quot;&gt;Middle进程&lt;/font&gt;" style="rounded=0;whiteSpace=wrap;html=1;shadow=0;glass=0;strokeWidth=4;strokeColor=none;fillColor=#FFD966;" vertex="1" parent="1">
          <mxGeometry x="-140" y="810" width="100" height="40" as="geometry" />
        </mxCell>
        <mxCell id="YqGiHm_dUTuIlLCKrZof-49" value="&lt;font color=&quot;#ffffff&quot;&gt;定时任务&lt;/font&gt;" style="rounded=0;whiteSpace=wrap;html=1;shadow=0;glass=0;strokeWidth=4;strokeColor=none;fillColor=#EA6B66;" vertex="1" parent="1">
          <mxGeometry y="760" width="100" height="40" as="geometry" />
        </mxCell>
        <mxCell id="YqGiHm_dUTuIlLCKrZof-50" value="&lt;font color=&quot;#ffffff&quot;&gt;cron.d进程&lt;/font&gt;" style="rounded=0;whiteSpace=wrap;html=1;shadow=0;glass=0;strokeWidth=4;strokeColor=none;fillColor=#EA6B66;" vertex="1" parent="1">
          <mxGeometry y="810" width="100" height="40" as="geometry" />
        </mxCell>
      </root>
    </mxGraphModel>
  </diagram>
</mxfile>
